# xmcd
#
# Track frame offsets:
#	150
#	10180
#	18767
#	34167
#	41830
#	49125
#	59712
#	68640
#	76702
#	81687
#	93717
#	103930
#	109825
#	116322
#	124372
#	135720
#	142437
#	150897
#	160350
#	169585
#	182660
#	192807
#	201367
#	215015
#	222510
#	232362
#	242417
#	253350
#	261367
#	271485
#	281062
#	288110
#	293772
#	301037
#	312732
#	319895
#
# Disc length: 4438 seconds
#
# Revision: 5
# Processed by: cddbd v1.5.2PL0 Copyright (c) Steve Scherf et al.
# Submitted via: audiograbber 1.83.01
#
DISCID=33115424
DTITLE=Various Artist - The World's Greatest Country Fiddlers
DYEAR=1989
DGENRE=Country
TTITLE0=Johnny Gimble - Flower Of Mexico
TTITLE1=Buddy Spicher - Soldier's Joy
TTITLE2=Fiddlin' Red Herron - Goodnight Waltz
TTITLE3=Paul Warren - Sally Goodin'
TTITLE4=Ramona Jones - Whiskey Before Breakfast
TTITLE5=Benny Martin - Home Sweet Home
TTITLE6=Clarence 'Tater' Tate With Lester Flatt's Nashville Grass - Fiddlin' Cr
TTITLE6=icket
TTITLE7=Kenny Baker With Bobby Osborne - Dusty Miller
TTITLE8=Chubby Wise - Chicken Reel
TTITLE9=Buddy Spicher and Benny Martin - Down Yonder
TTITLE10=Joe Maphis With Johnny Gimble - Bonaparte's Retreat
TTITLE11=Buddy Spicher - East Tennessee Blues
TTITLE12=Fiddlin' Ronnie Stewart - Durham's Bull
TTITLE13=Benny Martin - Beautiful Dreamer
TTITLE14=Fiddlin' Red Herron - Rock Jenny Rock
TTITLE15=Paul Warren - Denver Belle
TTITLE16=Vassar Clements With Josh Graves - Katy Hill
TTITLE17=Johnny Gimble - Dreamy Eyes Waltz
TTITLE18=Fiddlin' Red Herron - Fire On The Mountain
TTITLE19=Johnny Gimble - Darling Nellie Gray
TTITLE20=Clarence 'Tater' Tate With Lester Flatt's Nashville Grass - Nashville 
TTITLE20=Wagoner
TTITLE21=Buddy Spicher and Benny Martin - Put Your Little Foot
TTITLE22=Cliff Bruner With The Johnny Gimble Band - Crafton Blues
TTITLE23=Paul Warren - Stony Fork
TTITLE24=Buddy Spicher - Bitter Creek
TTITLE25=Ramona Jones - Ramona's Choice
TTITLE26=Vassar Clements With Josh Graves - Paddy On The Turnpike
TTITLE27=Benny Martin - Fiddler's Dream
TTITLE28=Buddy Spicher - Silver Bell/red Wing
TTITLE29=Keny Baker With Bobby Osborne - Sally Ann
TTITLE30=Paul Warren - New Five Cents
TTITLE31=Johnny Gimble - Carroll County Blues
TTITLE32=Chubby Wise - Chubby's Cacklin' Hen
TTITLE33=Randall Collins and Jerry Moore With The Pinnacle Boys - Latin Leprechau
TTITLE33=n
TTITLE34=Ramona Jones - Cluck Ol' Hen
TTITLE35=Chubby Anthony - Lee Highway Blues
EXTD=
EXTT0=
EXTT1=
EXTT2=
EXTT3=
EXTT4=
EXTT5=
EXTT6=
EXTT7=
EXTT8=
EXTT9=
EXTT10=
EXTT11=
EXTT12=
EXTT13=
EXTT14=
EXTT15=
EXTT16=
EXTT17=
EXTT18=
EXTT19=
EXTT20=
EXTT21=
EXTT22=
EXTT23=
EXTT24=
EXTT25=
EXTT26=
EXTT27=
EXTT28=
EXTT29=
EXTT30=
EXTT31=
EXTT32=
EXTT33=
EXTT34=
EXTT35=
PLAYORDER=
